<svg width="600" height="190" viewBox="0 0 600 190" fill="none" xmlns="http://www.w3.org/2000/svg">
<rect width="600" height="190" fill="#E5E5E5"/>
<rect width="600" height="190" fill="black"/>
<path d="M76 93C76.2667 94.0667 76.4 95.4 76.4 97C76.4 98.5333 76.2667 99.8667 76 101H60C60.2667 102.067 60.4 103.4 60.4 105C60.4 106.533 60.2667 107.867 60 109C60.2667 110.067 60.4 111.4 60.4 113C60.4 114.533 60.2667 115.867 60 117C60.2667 118.067 60.4 119.4 60.4 121C60.4 122.533 60.2667 123.867 60 125H52C51.7333 123.867 51.6 122.533 51.6 121C51.6 119.4 51.7333 118.067 52 117C51.7333 115.867 51.6 114.533 51.6 113C51.6 111.4 51.7333 110.067 52 109C51.7333 107.867 51.6 106.533 51.6 105C51.6 103.4 51.7333 102.067 52 101C51.7333 99.8667 51.6 98.5333 51.6 97C51.6 95.4 51.7333 94.0667 52 93C51.7333 91.8667 51.6 90.5333 51.6 89C51.6 87.4 51.7333 86.0667 52 85C51.7333 83.8667 51.6 82.5333 51.6 81C51.6 79.4 51.7333 78.0667 52 77C51.7333 75.8667 51.6 74.5333 51.6 73C51.6 71.4 51.7333 70.0667 52 69H76C76.2667 70.0667 76.4 71.4 76.4 73C76.4 74.5333 76.2667 75.8667 76 77H60C60.2667 78.0667 60.4 79.4 60.4 81C60.4 82.5333 60.2667 83.8667 60 85C60.2667 86.0667 60.4 87.4 60.4 89C60.4 90.5333 60.2667 91.8667 60 93H76ZM120.039 117C120.306 118.067 120.439 119.4 120.439 121C120.439 122.533 120.306 123.867 120.039 125H112.039C111.772 123.867 111.639 122.533 111.639 121C111.639 119.4 111.772 118.067 112.039 117H109.039C108.772 115.867 108.639 114.533 108.639 113C108.639 111.4 108.772 110.067 109.039 109H106.039C105.772 107.867 105.639 106.533 105.639 105C105.639 103.4 105.772 102.067 106.039 101H96.0391C96.3057 102.067 96.4391 103.4 96.4391 105C96.4391 106.533 96.3057 107.867 96.0391 109C96.3057 110.067 96.4391 111.4 96.4391 113C96.4391 114.533 96.3057 115.867 96.0391 117C96.3057 118.067 96.4391 119.4 96.4391 121C96.4391 122.533 96.3057 123.867 96.0391 125H88.0391C87.7724 123.867 87.6391 122.533 87.6391 121C87.6391 119.4 87.7724 118.067 88.0391 117C87.7724 115.867 87.6391 114.533 87.6391 113C87.6391 111.4 87.7724 110.067 88.0391 109C87.7724 107.867 87.6391 106.533 87.6391 105C87.6391 103.4 87.7724 102.067 88.0391 101C87.7724 99.8667 87.6391 98.5333 87.6391 97C87.6391 95.4 87.7724 94.0667 88.0391 93C87.7724 91.8667 87.6391 90.5333 87.6391 89C87.6391 87.4 87.7724 86.0667 88.0391 85C87.7724 83.8667 87.6391 82.5333 87.6391 81C87.6391 79.4 87.7724 78.0667 88.0391 77C87.7724 75.8667 87.6391 74.5333 87.6391 73C87.6391 71.4 87.7724 70.0667 88.0391 69H116.039C116.306 70.0667 116.439 71.4 116.439 73C116.439 74.5333 116.306 75.8667 116.039 77H120.039C120.306 78.0667 120.439 79.4 120.439 81C120.439 82.5333 120.306 83.8667 120.039 85H118.039C118.306 86.0667 118.439 87.4 118.439 89C118.439 90.5333 118.306 91.8667 118.039 93H112.039C112.306 94.0667 112.439 95.4 112.439 97C112.439 98.5333 112.306 99.8667 112.039 101H114.039C114.306 102.067 114.439 103.4 114.439 105C114.439 106.533 114.306 107.867 114.039 109H117.039C117.306 110.067 117.439 111.4 117.439 113C117.439 114.533 117.306 115.867 117.039 117H120.039ZM110.039 93C109.772 91.8667 109.639 90.5333 109.639 89C109.639 87.4 109.772 86.0667 110.039 85C109.772 83.8667 109.639 82.5333 109.639 81C109.639 79.4 109.772 78.0667 110.039 77H96.0391C96.3057 78.0667 96.4391 79.4 96.4391 81C96.4391 82.5333 96.3057 83.8667 96.0391 85C96.3057 86.0667 96.4391 87.4 96.4391 89C96.4391 90.5333 96.3057 91.8667 96.0391 93H110.039ZM154.078 117C154.345 118.067 154.478 119.4 154.478 121C154.478 122.533 154.345 123.867 154.078 125H134.078C133.811 123.867 133.678 122.533 133.678 121C133.678 119.4 133.811 118.067 134.078 117H140.078C139.811 115.867 139.678 114.533 139.678 113C139.678 111.4 139.811 110.067 140.078 109C139.811 107.867 139.678 106.533 139.678 105C139.678 103.4 139.811 102.067 140.078 101C139.811 99.8667 139.678 98.5333 139.678 97C139.678 95.4 139.811 94.0667 140.078 93C139.811 91.8667 139.678 90.5333 139.678 89C139.678 87.4 139.811 86.0667 140.078 85C139.811 83.8667 139.678 82.5333 139.678 81C139.678 79.4 139.811 78.0667 140.078 77H134.078C133.811 75.8667 133.678 74.5333 133.678 73C133.678 71.4 133.811 70.0667 134.078 69H154.078C154.345 70.0667 154.478 71.4 154.478 73C154.478 74.5333 154.345 75.8667 154.078 77H148.078C148.345 78.0667 148.478 79.4 148.478 81C148.478 82.5333 148.345 83.8667 148.078 85C148.345 86.0667 148.478 87.4 148.478 89C148.478 90.5333 148.345 91.8667 148.078 93C148.345 94.0667 148.478 95.4 148.478 97C148.478 98.5333 148.345 99.8667 148.078 101C148.345 102.067 148.478 103.4 148.478 105C148.478 106.533 148.345 107.867 148.078 109C148.345 110.067 148.478 111.4 148.478 113C148.478 114.533 148.345 115.867 148.078 117H154.078ZM180.117 101C180.384 102.067 180.517 103.4 180.517 105C180.517 106.533 180.384 107.867 180.117 109C180.384 110.067 180.517 111.4 180.517 113C180.517 114.533 180.384 115.867 180.117 117H196.117C196.384 118.067 196.517 119.4 196.517 121C196.517 122.533 196.384 123.867 196.117 125H172.117C171.851 123.867 171.717 122.533 171.717 121C171.717 119.4 171.851 118.067 172.117 117C171.851 115.867 171.717 114.533 171.717 113C171.717 111.4 171.851 110.067 172.117 109C171.851 107.867 171.717 106.533 171.717 105C171.717 103.4 171.851 102.067 172.117 101C171.851 99.8667 171.717 98.5333 171.717 97C171.717 95.4 171.851 94.0667 172.117 93C171.851 91.8667 171.717 90.5333 171.717 89C171.717 87.4 171.851 86.0667 172.117 85C171.851 83.8667 171.717 82.5333 171.717 81C171.717 79.4 171.851 78.0667 172.117 77C171.851 75.8667 171.717 74.5333 171.717 73C171.717 71.4 171.851 70.0667 172.117 69H196.117C196.384 70.0667 196.517 71.4 196.517 73C196.517 74.5333 196.384 75.8667 196.117 77H180.117C180.384 78.0667 180.517 79.4 180.517 81C180.517 82.5333 180.384 83.8667 180.117 85C180.384 86.0667 180.517 87.4 180.517 89C180.517 90.5333 180.384 91.8667 180.117 93H196.117C196.384 94.0667 196.517 95.4 196.517 97C196.517 98.5333 196.384 99.8667 196.117 101H180.117ZM240.156 77C240.423 78.0667 240.556 79.4 240.556 81C240.556 82.5333 240.423 83.8667 240.156 85C240.423 86.0667 240.556 87.4 240.556 89C240.556 90.5333 240.423 91.8667 240.156 93C240.423 94.0667 240.556 95.4 240.556 97C240.556 98.5333 240.423 99.8667 240.156 101C240.423 102.067 240.556 103.4 240.556 105C240.556 106.533 240.423 107.867 240.156 109C240.423 110.067 240.556 111.4 240.556 113C240.556 114.533 240.423 115.867 240.156 117C240.423 118.067 240.556 119.4 240.556 121C240.556 122.533 240.423 123.867 240.156 125H232.156C231.89 123.867 231.756 122.533 231.756 121C231.756 119.4 231.89 118.067 232.156 117H227.156C226.89 115.867 226.756 114.533 226.756 113C226.756 111.4 226.89 110.067 227.156 109H224.156C223.89 107.867 223.756 106.533 223.756 105C223.756 103.4 223.89 102.067 224.156 101H220.156C219.89 99.8667 219.756 98.5333 219.756 97C219.756 95.4 219.89 94.0667 220.156 93H216.156C216.423 94.0667 216.556 95.4 216.556 97C216.556 98.5333 216.423 99.8667 216.156 101C216.423 102.067 216.556 103.4 216.556 105C216.556 106.533 216.423 107.867 216.156 109C216.423 110.067 216.556 111.4 216.556 113C216.556 114.533 216.423 115.867 216.156 117C216.423 118.067 216.556 119.4 216.556 121C216.556 122.533 216.423 123.867 216.156 125H208.156C207.89 123.867 207.756 122.533 207.756 121C207.756 119.4 207.89 118.067 208.156 117C207.89 115.867 207.756 114.533 207.756 113C207.756 111.4 207.89 110.067 208.156 109C207.89 107.867 207.756 106.533 207.756 105C207.756 103.4 207.89 102.067 208.156 101C207.89 99.8667 207.756 98.5333 207.756 97C207.756 95.4 207.89 94.0667 208.156 93C207.89 91.8667 207.756 90.5333 207.756 89C207.756 87.4 207.89 86.0667 208.156 85C207.89 83.8667 207.756 82.5333 207.756 81C207.756 79.4 207.89 78.0667 208.156 77C207.89 75.8667 207.756 74.5333 207.756 73C207.756 71.4 207.89 70.0667 208.156 69H218.156C218.423 70.0667 218.556 71.4 218.556 73C218.556 74.5333 218.423 75.8667 218.156 77H221.156C221.423 78.0667 221.556 79.4 221.556 81C221.556 82.5333 221.423 83.8667 221.156 85H224.156C224.423 86.0667 224.556 87.4 224.556 89C224.556 90.5333 224.423 91.8667 224.156 93H228.156C228.423 94.0667 228.556 95.4 228.556 97C228.556 98.5333 228.423 99.8667 228.156 101H232.156C231.89 99.8667 231.756 98.5333 231.756 97C231.756 95.4 231.89 94.0667 232.156 93C231.89 91.8667 231.756 90.5333 231.756 89C231.756 87.4 231.89 86.0667 232.156 85C231.89 83.8667 231.756 82.5333 231.756 81C231.756 79.4 231.89 78.0667 232.156 77C231.89 75.8667 231.756 74.5333 231.756 73C231.756 71.4 231.89 70.0667 232.156 69H240.156C240.423 70.0667 240.556 71.4 240.556 73C240.556 74.5333 240.423 75.8667 240.156 77ZM280.195 93C280.462 94.0667 280.595 95.4 280.595 97C280.595 98.5333 280.462 99.8667 280.195 101C280.462 102.067 280.595 103.4 280.595 105C280.595 106.533 280.462 107.867 280.195 109H276.195C276.462 110.067 276.595 111.4 276.595 113C276.595 114.533 276.462 115.867 276.195 117H272.195C272.462 118.067 272.595 119.4 272.595 121C272.595 122.533 272.462 123.867 272.195 125H248.195C247.929 123.867 247.795 122.533 247.795 121C247.795 119.4 247.929 118.067 248.195 117C247.929 115.867 247.795 114.533 247.795 113C247.795 111.4 247.929 110.067 248.195 109C247.929 107.867 247.795 106.533 247.795 105C247.795 103.4 247.929 102.067 248.195 101C247.929 99.8667 247.795 98.5333 247.795 97C247.795 95.4 247.929 94.0667 248.195 93C247.929 91.8667 247.795 90.5333 247.795 89C247.795 87.4 247.929 86.0667 248.195 85C247.929 83.8667 247.795 82.5333 247.795 81C247.795 79.4 247.929 78.0667 248.195 77C247.929 75.8667 247.795 74.5333 247.795 73C247.795 71.4 247.929 70.0667 248.195 69H272.195C272.462 70.0667 272.595 71.4 272.595 73C272.595 74.5333 272.462 75.8667 272.195 77H276.195C276.462 78.0667 276.595 79.4 276.595 81C276.595 82.5333 276.462 83.8667 276.195 85H280.195C280.462 86.0667 280.595 87.4 280.595 89C280.595 90.5333 280.462 91.8667 280.195 93ZM272.195 109C271.929 107.867 271.795 106.533 271.795 105C271.795 103.4 271.929 102.067 272.195 101C271.929 99.8667 271.795 98.5333 271.795 97C271.795 95.4 271.929 94.0667 272.195 93C271.929 91.8667 271.795 90.5333 271.795 89C271.795 87.4 271.929 86.0667 272.195 85H268.195C267.929 83.8667 267.795 82.5333 267.795 81C267.795 79.4 267.929 78.0667 268.195 77H256.195C256.462 78.0667 256.595 79.4 256.595 81C256.595 82.5333 256.462 83.8667 256.195 85C256.462 86.0667 256.595 87.4 256.595 89C256.595 90.5333 256.462 91.8667 256.195 93C256.462 94.0667 256.595 95.4 256.595 97C256.595 98.5333 256.462 99.8667 256.195 101C256.462 102.067 256.595 103.4 256.595 105C256.595 106.533 256.462 107.867 256.195 109C256.462 110.067 256.595 111.4 256.595 113C256.595 114.533 256.462 115.867 256.195 117H268.195C267.929 115.867 267.795 114.533 267.795 113C267.795 111.4 267.929 110.067 268.195 109H272.195ZM314.234 117C314.501 118.067 314.634 119.4 314.634 121C314.634 122.533 314.501 123.867 314.234 125H294.234C293.968 123.867 293.834 122.533 293.834 121C293.834 119.4 293.968 118.067 294.234 117H300.234C299.968 115.867 299.834 114.533 299.834 113C299.834 111.4 299.968 110.067 300.234 109C299.968 107.867 299.834 106.533 299.834 105C299.834 103.4 299.968 102.067 300.234 101C299.968 99.8667 299.834 98.5333 299.834 97C299.834 95.4 299.968 94.0667 300.234 93C299.968 91.8667 299.834 90.5333 299.834 89C299.834 87.4 299.968 86.0667 300.234 85C299.968 83.8667 299.834 82.5333 299.834 81C299.834 79.4 299.968 78.0667 300.234 77H294.234C293.968 75.8667 293.834 74.5333 293.834 73C293.834 71.4 293.968 70.0667 294.234 69H314.234C314.501 70.0667 314.634 71.4 314.634 73C314.634 74.5333 314.501 75.8667 314.234 77H308.234C308.501 78.0667 308.634 79.4 308.634 81C308.634 82.5333 308.501 83.8667 308.234 85C308.501 86.0667 308.634 87.4 308.634 89C308.634 90.5333 308.501 91.8667 308.234 93C308.501 94.0667 308.634 95.4 308.634 97C308.634 98.5333 308.501 99.8667 308.234 101C308.501 102.067 308.634 103.4 308.634 105C308.634 106.533 308.501 107.867 308.234 109C308.501 110.067 308.634 111.4 308.634 113C308.634 114.533 308.501 115.867 308.234 117H314.234ZM356.273 93C356.54 94.0667 356.673 95.4 356.673 97C356.673 98.5333 356.54 99.8667 356.273 101H340.273C340.54 102.067 340.673 103.4 340.673 105C340.673 106.533 340.54 107.867 340.273 109C340.54 110.067 340.673 111.4 340.673 113C340.673 114.533 340.54 115.867 340.273 117C340.54 118.067 340.673 119.4 340.673 121C340.673 122.533 340.54 123.867 340.273 125H332.273C332.007 123.867 331.873 122.533 331.873 121C331.873 119.4 332.007 118.067 332.273 117C332.007 115.867 331.873 114.533 331.873 113C331.873 111.4 332.007 110.067 332.273 109C332.007 107.867 331.873 106.533 331.873 105C331.873 103.4 332.007 102.067 332.273 101C332.007 99.8667 331.873 98.5333 331.873 97C331.873 95.4 332.007 94.0667 332.273 93C332.007 91.8667 331.873 90.5333 331.873 89C331.873 87.4 332.007 86.0667 332.273 85C332.007 83.8667 331.873 82.5333 331.873 81C331.873 79.4 332.007 78.0667 332.273 77C332.007 75.8667 331.873 74.5333 331.873 73C331.873 71.4 332.007 70.0667 332.273 69H356.273C356.54 70.0667 356.673 71.4 356.673 73C356.673 74.5333 356.54 75.8667 356.273 77H340.273C340.54 78.0667 340.673 79.4 340.673 81C340.673 82.5333 340.54 83.8667 340.273 85C340.54 86.0667 340.673 87.4 340.673 89C340.673 90.5333 340.54 91.8667 340.273 93H356.273ZM400.713 73C400.713 74.5333 400.579 75.8667 400.313 77C400.579 78.0667 400.713 79.4 400.713 81C400.713 82.5333 400.579 83.8667 400.313 85H396.313C396.579 86.0667 396.713 87.4 396.713 89C396.713 90.5333 396.579 91.8667 396.313 93H392.313C392.579 94.0667 392.713 95.4 392.713 97C392.713 98.5333 392.579 99.8667 392.313 101H388.313C388.579 102.067 388.713 103.4 388.713 105C388.713 106.533 388.579 107.867 388.313 109C388.579 110.067 388.713 111.4 388.713 113C388.713 114.533 388.579 115.867 388.313 117C388.579 118.067 388.713 119.4 388.713 121C388.713 122.533 388.579 123.867 388.313 125H380.313C380.046 123.867 379.913 122.533 379.913 121C379.913 119.4 380.046 118.067 380.313 117C380.046 115.867 379.913 114.533 379.913 113C379.913 111.4 380.046 110.067 380.313 109C380.046 107.867 379.913 106.533 379.913 105C379.913 103.4 380.046 102.067 380.313 101H376.313C376.046 99.8667 375.913 98.5333 375.913 97C375.913 95.4 376.046 94.0667 376.313 93H372.313C372.046 91.8667 371.913 90.5333 371.913 89C371.913 87.4 372.046 86.0667 372.313 85H368.313C368.046 83.8667 367.913 82.5333 367.913 81C367.913 79.4 368.046 78.0667 368.313 77C368.046 75.8667 367.913 74.5333 367.913 73C367.913 71.4 368.046 70.0667 368.313 69H376.313C376.579 70.0667 376.713 71.4 376.713 73C376.713 74.5333 376.579 75.8667 376.313 77C376.579 78.0667 376.713 79.4 376.713 81C376.713 82.5333 376.579 83.8667 376.313 85H380.313C380.579 86.0667 380.713 87.4 380.713 89C380.713 90.5333 380.579 91.8667 380.313 93H388.313C388.046 91.8667 387.913 90.5333 387.913 89C387.913 87.4 388.046 86.0667 388.313 85H392.313C392.046 83.8667 391.913 82.5333 391.913 81C391.913 79.4 392.046 78.0667 392.313 77C392.046 75.8667 391.913 74.5333 391.913 73C391.913 71.4 392.046 70.0667 392.313 69H400.313C400.579 70.0667 400.713 71.4 400.713 73ZM428.352 77C428.618 78.0667 428.752 79.4 428.752 81C428.752 82.5333 428.618 83.8667 428.352 85C428.618 86.0667 428.752 87.4 428.752 89C428.752 90.5333 428.618 91.8667 428.352 93C428.618 94.0667 428.752 95.4 428.752 97C428.752 98.5333 428.618 99.8667 428.352 101C428.618 102.067 428.752 103.4 428.752 105C428.752 106.533 428.618 107.867 428.352 109H420.352C420.085 107.867 419.952 106.533 419.952 105C419.952 103.4 420.085 102.067 420.352 101C420.085 99.8667 419.952 98.5333 419.952 97C419.952 95.4 420.085 94.0667 420.352 93C420.085 91.8667 419.952 90.5333 419.952 89C419.952 87.4 420.085 86.0667 420.352 85C420.085 83.8667 419.952 82.5333 419.952 81C419.952 79.4 420.085 78.0667 420.352 77C420.085 75.8667 419.952 74.5333 419.952 73C419.952 71.4 420.085 70.0667 420.352 69H428.352C428.618 70.0667 428.752 71.4 428.752 73C428.752 74.5333 428.618 75.8667 428.352 77ZM428.352 117C428.618 118.067 428.752 119.4 428.752 121C428.752 122.533 428.618 123.867 428.352 125H420.352C420.085 123.867 419.952 122.533 419.952 121C419.952 119.4 420.085 118.067 420.352 117H428.352Z" fill="white"/>
</svg>
