<svg width="600" height="190" viewBox="0 0 600 190" fill="none" xmlns="http://www.w3.org/2000/svg">
<rect width="600" height="190" fill="#E5E5E5"/>
<rect width="600" height="190" fill="black"/>
<path d="M69.28 92.72C69.4907 93.5627 69.596 94.616 69.596 95.88C69.596 97.0913 69.4907 98.1447 69.28 99.04H56.64C56.8507 99.8827 56.956 100.936 56.956 102.2C56.956 103.411 56.8507 104.465 56.64 105.36C56.8507 106.203 56.956 107.256 56.956 108.52C56.956 109.731 56.8507 110.785 56.64 111.68C56.8507 112.523 56.956 113.576 56.956 114.84C56.956 116.051 56.8507 117.105 56.64 118H50.32C50.1093 117.105 50.004 116.051 50.004 114.84C50.004 113.576 50.1093 112.523 50.32 111.68C50.1093 110.785 50.004 109.731 50.004 108.52C50.004 107.256 50.1093 106.203 50.32 105.36C50.1093 104.465 50.004 103.411 50.004 102.2C50.004 100.936 50.1093 99.8827 50.32 99.04C50.1093 98.1447 50.004 97.0913 50.004 95.88C50.004 94.616 50.1093 93.5627 50.32 92.72C50.1093 91.8247 50.004 90.7713 50.004 89.56C50.004 88.296 50.1093 87.2427 50.32 86.4C50.1093 85.5047 50.004 84.4513 50.004 83.24C50.004 81.976 50.1093 80.9227 50.32 80.08C50.1093 79.1847 50.004 78.1313 50.004 76.92C50.004 75.656 50.1093 74.6027 50.32 73.76H69.28C69.4907 74.6027 69.596 75.656 69.596 76.92C69.596 78.1313 69.4907 79.1847 69.28 80.08H56.64C56.8507 80.9227 56.956 81.976 56.956 83.24C56.956 84.4513 56.8507 85.5047 56.64 86.4C56.8507 87.2427 56.956 88.296 56.956 89.56C56.956 90.7713 56.8507 91.8247 56.64 92.72H69.28ZM104.071 111.68C104.282 112.523 104.387 113.576 104.387 114.84C104.387 116.051 104.282 117.105 104.071 118H97.7509C97.5402 117.105 97.4349 116.051 97.4349 114.84C97.4349 113.576 97.5402 112.523 97.7509 111.68H95.3809C95.1702 110.785 95.0649 109.731 95.0649 108.52C95.0649 107.256 95.1702 106.203 95.3809 105.36H93.0109C92.8002 104.465 92.6949 103.411 92.6949 102.2C92.6949 100.936 92.8002 99.8827 93.0109 99.04H85.1109C85.3215 99.8827 85.4269 100.936 85.4269 102.2C85.4269 103.411 85.3215 104.465 85.1109 105.36C85.3215 106.203 85.4269 107.256 85.4269 108.52C85.4269 109.731 85.3215 110.785 85.1109 111.68C85.3215 112.523 85.4269 113.576 85.4269 114.84C85.4269 116.051 85.3215 117.105 85.1109 118H78.7909C78.5802 117.105 78.4749 116.051 78.4749 114.84C78.4749 113.576 78.5802 112.523 78.7909 111.68C78.5802 110.785 78.4749 109.731 78.4749 108.52C78.4749 107.256 78.5802 106.203 78.7909 105.36C78.5802 104.465 78.4749 103.411 78.4749 102.2C78.4749 100.936 78.5802 99.8827 78.7909 99.04C78.5802 98.1447 78.4749 97.0913 78.4749 95.88C78.4749 94.616 78.5802 93.5627 78.7909 92.72C78.5802 91.8247 78.4749 90.7713 78.4749 89.56C78.4749 88.296 78.5802 87.2427 78.7909 86.4C78.5802 85.5047 78.4749 84.4513 78.4749 83.24C78.4749 81.976 78.5802 80.9227 78.7909 80.08C78.5802 79.1847 78.4749 78.1313 78.4749 76.92C78.4749 75.656 78.5802 74.6027 78.7909 73.76H100.911C101.122 74.6027 101.227 75.656 101.227 76.92C101.227 78.1313 101.122 79.1847 100.911 80.08H104.071C104.282 80.9227 104.387 81.976 104.387 83.24C104.387 84.4513 104.282 85.5047 104.071 86.4H102.491C102.702 87.2427 102.807 88.296 102.807 89.56C102.807 90.7713 102.702 91.8247 102.491 92.72H97.7509C97.9615 93.5627 98.0669 94.616 98.0669 95.88C98.0669 97.0913 97.9615 98.1447 97.7509 99.04H99.3309C99.5415 99.8827 99.6469 100.936 99.6469 102.2C99.6469 103.411 99.5415 104.465 99.3309 105.36H101.701C101.912 106.203 102.017 107.256 102.017 108.52C102.017 109.731 101.912 110.785 101.701 111.68H104.071ZM96.1709 92.72C95.9602 91.8247 95.8549 90.7713 95.8549 89.56C95.8549 88.296 95.9602 87.2427 96.1709 86.4C95.9602 85.5047 95.8549 84.4513 95.8549 83.24C95.8549 81.976 95.9602 80.9227 96.1709 80.08H85.1109C85.3215 80.9227 85.4269 81.976 85.4269 83.24C85.4269 84.4513 85.3215 85.5047 85.1109 86.4C85.3215 87.2427 85.4269 88.296 85.4269 89.56C85.4269 90.7713 85.3215 91.8247 85.1109 92.72H96.1709ZM130.962 111.68C131.172 112.523 131.278 113.576 131.278 114.84C131.278 116.051 131.172 117.105 130.962 118H115.162C114.951 117.105 114.846 116.051 114.846 114.84C114.846 113.576 114.951 112.523 115.162 111.68H119.902C119.691 110.785 119.586 109.731 119.586 108.52C119.586 107.256 119.691 106.203 119.902 105.36C119.691 104.465 119.586 103.411 119.586 102.2C119.586 100.936 119.691 99.8827 119.902 99.04C119.691 98.1447 119.586 97.0913 119.586 95.88C119.586 94.616 119.691 93.5627 119.902 92.72C119.691 91.8247 119.586 90.7713 119.586 89.56C119.586 88.296 119.691 87.2427 119.902 86.4C119.691 85.5047 119.586 84.4513 119.586 83.24C119.586 81.976 119.691 80.9227 119.902 80.08H115.162C114.951 79.1847 114.846 78.1313 114.846 76.92C114.846 75.656 114.951 74.6027 115.162 73.76H130.962C131.172 74.6027 131.278 75.656 131.278 76.92C131.278 78.1313 131.172 79.1847 130.962 80.08H126.222C126.432 80.9227 126.538 81.976 126.538 83.24C126.538 84.4513 126.432 85.5047 126.222 86.4C126.432 87.2427 126.538 88.296 126.538 89.56C126.538 90.7713 126.432 91.8247 126.222 92.72C126.432 93.5627 126.538 94.616 126.538 95.88C126.538 97.0913 126.432 98.1447 126.222 99.04C126.432 99.8827 126.538 100.936 126.538 102.2C126.538 103.411 126.432 104.465 126.222 105.36C126.432 106.203 126.538 107.256 126.538 108.52C126.538 109.731 126.432 110.785 126.222 111.68H130.962ZM151.533 99.04C151.743 99.8827 151.849 100.936 151.849 102.2C151.849 103.411 151.743 104.465 151.533 105.36C151.743 106.203 151.849 107.256 151.849 108.52C151.849 109.731 151.743 110.785 151.533 111.68H164.173C164.383 112.523 164.489 113.576 164.489 114.84C164.489 116.051 164.383 117.105 164.173 118H145.213C145.002 117.105 144.897 116.051 144.897 114.84C144.897 113.576 145.002 112.523 145.213 111.68C145.002 110.785 144.897 109.731 144.897 108.52C144.897 107.256 145.002 106.203 145.213 105.36C145.002 104.465 144.897 103.411 144.897 102.2C144.897 100.936 145.002 99.8827 145.213 99.04C145.002 98.1447 144.897 97.0913 144.897 95.88C144.897 94.616 145.002 93.5627 145.213 92.72C145.002 91.8247 144.897 90.7713 144.897 89.56C144.897 88.296 145.002 87.2427 145.213 86.4C145.002 85.5047 144.897 84.4513 144.897 83.24C144.897 81.976 145.002 80.9227 145.213 80.08C145.002 79.1847 144.897 78.1313 144.897 76.92C144.897 75.656 145.002 74.6027 145.213 73.76H164.173C164.383 74.6027 164.489 75.656 164.489 76.92C164.489 78.1313 164.383 79.1847 164.173 80.08H151.533C151.743 80.9227 151.849 81.976 151.849 83.24C151.849 84.4513 151.743 85.5047 151.533 86.4C151.743 87.2427 151.849 88.296 151.849 89.56C151.849 90.7713 151.743 91.8247 151.533 92.72H164.173C164.383 93.5627 164.489 94.616 164.489 95.88C164.489 97.0913 164.383 98.1447 164.173 99.04H151.533ZM198.963 80.08C199.174 80.9227 199.279 81.976 199.279 83.24C199.279 84.4513 199.174 85.5047 198.963 86.4C199.174 87.2427 199.279 88.296 199.279 89.56C199.279 90.7713 199.174 91.8247 198.963 92.72C199.174 93.5627 199.279 94.616 199.279 95.88C199.279 97.0913 199.174 98.1447 198.963 99.04C199.174 99.8827 199.279 100.936 199.279 102.2C199.279 103.411 199.174 104.465 198.963 105.36C199.174 106.203 199.279 107.256 199.279 108.52C199.279 109.731 199.174 110.785 198.963 111.68C199.174 112.523 199.279 113.576 199.279 114.84C199.279 116.051 199.174 117.105 198.963 118H192.643C192.433 117.105 192.327 116.051 192.327 114.84C192.327 113.576 192.433 112.523 192.643 111.68H188.693C188.483 110.785 188.377 109.731 188.377 108.52C188.377 107.256 188.483 106.203 188.693 105.36H186.323C186.113 104.465 186.007 103.411 186.007 102.2C186.007 100.936 186.113 99.8827 186.323 99.04H183.163C182.953 98.1447 182.847 97.0913 182.847 95.88C182.847 94.616 182.953 93.5627 183.163 92.72H180.003C180.214 93.5627 180.319 94.616 180.319 95.88C180.319 97.0913 180.214 98.1447 180.003 99.04C180.214 99.8827 180.319 100.936 180.319 102.2C180.319 103.411 180.214 104.465 180.003 105.36C180.214 106.203 180.319 107.256 180.319 108.52C180.319 109.731 180.214 110.785 180.003 111.68C180.214 112.523 180.319 113.576 180.319 114.84C180.319 116.051 180.214 117.105 180.003 118H173.683C173.473 117.105 173.367 116.051 173.367 114.84C173.367 113.576 173.473 112.523 173.683 111.68C173.473 110.785 173.367 109.731 173.367 108.52C173.367 107.256 173.473 106.203 173.683 105.36C173.473 104.465 173.367 103.411 173.367 102.2C173.367 100.936 173.473 99.8827 173.683 99.04C173.473 98.1447 173.367 97.0913 173.367 95.88C173.367 94.616 173.473 93.5627 173.683 92.72C173.473 91.8247 173.367 90.7713 173.367 89.56C173.367 88.296 173.473 87.2427 173.683 86.4C173.473 85.5047 173.367 84.4513 173.367 83.24C173.367 81.976 173.473 80.9227 173.683 80.08C173.473 79.1847 173.367 78.1313 173.367 76.92C173.367 75.656 173.473 74.6027 173.683 73.76H181.583C181.794 74.6027 181.899 75.656 181.899 76.92C181.899 78.1313 181.794 79.1847 181.583 80.08H183.953C184.164 80.9227 184.269 81.976 184.269 83.24C184.269 84.4513 184.164 85.5047 183.953 86.4H186.323C186.534 87.2427 186.639 88.296 186.639 89.56C186.639 90.7713 186.534 91.8247 186.323 92.72H189.483C189.694 93.5627 189.799 94.616 189.799 95.88C189.799 97.0913 189.694 98.1447 189.483 99.04H192.643C192.433 98.1447 192.327 97.0913 192.327 95.88C192.327 94.616 192.433 93.5627 192.643 92.72C192.433 91.8247 192.327 90.7713 192.327 89.56C192.327 88.296 192.433 87.2427 192.643 86.4C192.433 85.5047 192.327 84.4513 192.327 83.24C192.327 81.976 192.433 80.9227 192.643 80.08C192.433 79.1847 192.327 78.1313 192.327 76.92C192.327 75.656 192.433 74.6027 192.643 73.76H198.963C199.174 74.6027 199.279 75.656 199.279 76.92C199.279 78.1313 199.174 79.1847 198.963 80.08ZM230.594 92.72C230.805 93.5627 230.91 94.616 230.91 95.88C230.91 97.0913 230.805 98.1447 230.594 99.04C230.805 99.8827 230.91 100.936 230.91 102.2C230.91 103.411 230.805 104.465 230.594 105.36H227.434C227.645 106.203 227.75 107.256 227.75 108.52C227.75 109.731 227.645 110.785 227.434 111.68H224.274C224.485 112.523 224.59 113.576 224.59 114.84C224.59 116.051 224.485 117.105 224.274 118H205.314C205.104 117.105 204.998 116.051 204.998 114.84C204.998 113.576 205.104 112.523 205.314 111.68C205.104 110.785 204.998 109.731 204.998 108.52C204.998 107.256 205.104 106.203 205.314 105.36C205.104 104.465 204.998 103.411 204.998 102.2C204.998 100.936 205.104 99.8827 205.314 99.04C205.104 98.1447 204.998 97.0913 204.998 95.88C204.998 94.616 205.104 93.5627 205.314 92.72C205.104 91.8247 204.998 90.7713 204.998 89.56C204.998 88.296 205.104 87.2427 205.314 86.4C205.104 85.5047 204.998 84.4513 204.998 83.24C204.998 81.976 205.104 80.9227 205.314 80.08C205.104 79.1847 204.998 78.1313 204.998 76.92C204.998 75.656 205.104 74.6027 205.314 73.76H224.274C224.485 74.6027 224.59 75.656 224.59 76.92C224.59 78.1313 224.485 79.1847 224.274 80.08H227.434C227.645 80.9227 227.75 81.976 227.75 83.24C227.75 84.4513 227.645 85.5047 227.434 86.4H230.594C230.805 87.2427 230.91 88.296 230.91 89.56C230.91 90.7713 230.805 91.8247 230.594 92.72ZM224.274 105.36C224.064 104.465 223.958 103.411 223.958 102.2C223.958 100.936 224.064 99.8827 224.274 99.04C224.064 98.1447 223.958 97.0913 223.958 95.88C223.958 94.616 224.064 93.5627 224.274 92.72C224.064 91.8247 223.958 90.7713 223.958 89.56C223.958 88.296 224.064 87.2427 224.274 86.4H221.114C220.904 85.5047 220.798 84.4513 220.798 83.24C220.798 81.976 220.904 80.9227 221.114 80.08H211.634C211.845 80.9227 211.95 81.976 211.95 83.24C211.95 84.4513 211.845 85.5047 211.634 86.4C211.845 87.2427 211.95 88.296 211.95 89.56C211.95 90.7713 211.845 91.8247 211.634 92.72C211.845 93.5627 211.95 94.616 211.95 95.88C211.95 97.0913 211.845 98.1447 211.634 99.04C211.845 99.8827 211.95 100.936 211.95 102.2C211.95 103.411 211.845 104.465 211.634 105.36C211.845 106.203 211.95 107.256 211.95 108.52C211.95 109.731 211.845 110.785 211.634 111.68H221.114C220.904 110.785 220.798 109.731 220.798 108.52C220.798 107.256 220.904 106.203 221.114 105.36H224.274ZM257.485 111.68C257.696 112.523 257.801 113.576 257.801 114.84C257.801 116.051 257.696 117.105 257.485 118H241.685C241.474 117.105 241.369 116.051 241.369 114.84C241.369 113.576 241.474 112.523 241.685 111.68H246.425C246.214 110.785 246.109 109.731 246.109 108.52C246.109 107.256 246.214 106.203 246.425 105.36C246.214 104.465 246.109 103.411 246.109 102.2C246.109 100.936 246.214 99.8827 246.425 99.04C246.214 98.1447 246.109 97.0913 246.109 95.88C246.109 94.616 246.214 93.5627 246.425 92.72C246.214 91.8247 246.109 90.7713 246.109 89.56C246.109 88.296 246.214 87.2427 246.425 86.4C246.214 85.5047 246.109 84.4513 246.109 83.24C246.109 81.976 246.214 80.9227 246.425 80.08H241.685C241.474 79.1847 241.369 78.1313 241.369 76.92C241.369 75.656 241.474 74.6027 241.685 73.76H257.485C257.696 74.6027 257.801 75.656 257.801 76.92C257.801 78.1313 257.696 79.1847 257.485 80.08H252.745C252.956 80.9227 253.061 81.976 253.061 83.24C253.061 84.4513 252.956 85.5047 252.745 86.4C252.956 87.2427 253.061 88.296 253.061 89.56C253.061 90.7713 252.956 91.8247 252.745 92.72C252.956 93.5627 253.061 94.616 253.061 95.88C253.061 97.0913 252.956 98.1447 252.745 99.04C252.956 99.8827 253.061 100.936 253.061 102.2C253.061 103.411 252.956 104.465 252.745 105.36C252.956 106.203 253.061 107.256 253.061 108.52C253.061 109.731 252.956 110.785 252.745 111.68H257.485ZM290.696 92.72C290.907 93.5627 291.012 94.616 291.012 95.88C291.012 97.0913 290.907 98.1447 290.696 99.04H278.056C278.267 99.8827 278.372 100.936 278.372 102.2C278.372 103.411 278.267 104.465 278.056 105.36C278.267 106.203 278.372 107.256 278.372 108.52C278.372 109.731 278.267 110.785 278.056 111.68C278.267 112.523 278.372 113.576 278.372 114.84C278.372 116.051 278.267 117.105 278.056 118H271.736C271.525 117.105 271.42 116.051 271.42 114.84C271.42 113.576 271.525 112.523 271.736 111.68C271.525 110.785 271.42 109.731 271.42 108.52C271.42 107.256 271.525 106.203 271.736 105.36C271.525 104.465 271.42 103.411 271.42 102.2C271.42 100.936 271.525 99.8827 271.736 99.04C271.525 98.1447 271.42 97.0913 271.42 95.88C271.42 94.616 271.525 93.5627 271.736 92.72C271.525 91.8247 271.42 90.7713 271.42 89.56C271.42 88.296 271.525 87.2427 271.736 86.4C271.525 85.5047 271.42 84.4513 271.42 83.24C271.42 81.976 271.525 80.9227 271.736 80.08C271.525 79.1847 271.42 78.1313 271.42 76.92C271.42 75.656 271.525 74.6027 271.736 73.76H290.696C290.907 74.6027 291.012 75.656 291.012 76.92C291.012 78.1313 290.907 79.1847 290.696 80.08H278.056C278.267 80.9227 278.372 81.976 278.372 83.24C278.372 84.4513 278.267 85.5047 278.056 86.4C278.267 87.2427 278.372 88.296 278.372 89.56C278.372 90.7713 278.267 91.8247 278.056 92.72H290.696ZM325.803 76.92C325.803 78.1313 325.698 79.1847 325.487 80.08C325.698 80.9227 325.803 81.976 325.803 83.24C325.803 84.4513 325.698 85.5047 325.487 86.4H322.327C322.538 87.2427 322.643 88.296 322.643 89.56C322.643 90.7713 322.538 91.8247 322.327 92.72H319.167C319.378 93.5627 319.483 94.616 319.483 95.88C319.483 97.0913 319.378 98.1447 319.167 99.04H316.007C316.218 99.8827 316.323 100.936 316.323 102.2C316.323 103.411 316.218 104.465 316.007 105.36C316.218 106.203 316.323 107.256 316.323 108.52C316.323 109.731 316.218 110.785 316.007 111.68C316.218 112.523 316.323 113.576 316.323 114.84C316.323 116.051 316.218 117.105 316.007 118H309.687C309.476 117.105 309.371 116.051 309.371 114.84C309.371 113.576 309.476 112.523 309.687 111.68C309.476 110.785 309.371 109.731 309.371 108.52C309.371 107.256 309.476 106.203 309.687 105.36C309.476 104.465 309.371 103.411 309.371 102.2C309.371 100.936 309.476 99.8827 309.687 99.04H306.527C306.316 98.1447 306.211 97.0913 306.211 95.88C306.211 94.616 306.316 93.5627 306.527 92.72H303.367C303.156 91.8247 303.051 90.7713 303.051 89.56C303.051 88.296 303.156 87.2427 303.367 86.4H300.207C299.996 85.5047 299.891 84.4513 299.891 83.24C299.891 81.976 299.996 80.9227 300.207 80.08C299.996 79.1847 299.891 78.1313 299.891 76.92C299.891 75.656 299.996 74.6027 300.207 73.76H306.527C306.738 74.6027 306.843 75.656 306.843 76.92C306.843 78.1313 306.738 79.1847 306.527 80.08C306.738 80.9227 306.843 81.976 306.843 83.24C306.843 84.4513 306.738 85.5047 306.527 86.4H309.687C309.898 87.2427 310.003 88.296 310.003 89.56C310.003 90.7713 309.898 91.8247 309.687 92.72H316.007C315.796 91.8247 315.691 90.7713 315.691 89.56C315.691 88.296 315.796 87.2427 316.007 86.4H319.167C318.956 85.5047 318.851 84.4513 318.851 83.24C318.851 81.976 318.956 80.9227 319.167 80.08C318.956 79.1847 318.851 78.1313 318.851 76.92C318.851 75.656 318.956 74.6027 319.167 73.76H325.487C325.698 74.6027 325.803 75.656 325.803 76.92ZM347.638 80.08C347.848 80.9227 347.954 81.976 347.954 83.24C347.954 84.4513 347.848 85.5047 347.638 86.4C347.848 87.2427 347.954 88.296 347.954 89.56C347.954 90.7713 347.848 91.8247 347.638 92.72C347.848 93.5627 347.954 94.616 347.954 95.88C347.954 97.0913 347.848 98.1447 347.638 99.04C347.848 99.8827 347.954 100.936 347.954 102.2C347.954 103.411 347.848 104.465 347.638 105.36H341.318C341.107 104.465 341.002 103.411 341.002 102.2C341.002 100.936 341.107 99.8827 341.318 99.04C341.107 98.1447 341.002 97.0913 341.002 95.88C341.002 94.616 341.107 93.5627 341.318 92.72C341.107 91.8247 341.002 90.7713 341.002 89.56C341.002 88.296 341.107 87.2427 341.318 86.4C341.107 85.5047 341.002 84.4513 341.002 83.24C341.002 81.976 341.107 80.9227 341.318 80.08C341.107 79.1847 341.002 78.1313 341.002 76.92C341.002 75.656 341.107 74.6027 341.318 73.76H347.638C347.848 74.6027 347.954 75.656 347.954 76.92C347.954 78.1313 347.848 79.1847 347.638 80.08ZM347.638 111.68C347.848 112.523 347.954 113.576 347.954 114.84C347.954 116.051 347.848 117.105 347.638 118H341.318C341.107 117.105 341.002 116.051 341.002 114.84C341.002 113.576 341.107 112.523 341.318 111.68H347.638Z" fill="white"/>
</svg>
